<svg width="1200" height="800" viewBox="0 0 1200 800" fill="none" xmlns="http://www.w3.org/2000/svg">
  <rect width="1200" height="800" rx="36" fill="#07131F"/>
  <rect x="64" y="64" width="1072" height="672" rx="28" fill="#0C1E2F" stroke="#1B3650" stroke-width="2"/>
  <rect x="116" y="132" width="312" height="210" rx="18" fill="#0F2F45"/>
  <rect x="460" y="132" width="624" height="210" rx="18" fill="#133A53"/>
  <rect x="116" y="380" width="968" height="246" rx="22" fill="#102B3E"/>
  <circle cx="240" cy="240" r="78" fill="#36B0F0" fill-opacity="0.25"/>
  <rect x="180" y="188" width="120" height="100" rx="14" fill="#E3F5FF"/>
  <rect x="212" y="214" width="56" height="12" rx="6" fill="#0C1E2F"/>
  <rect x="212" y="238" width="84" height="10" rx="5" fill="#7AC7E8"/>
  <path d="M546 286C546 243.026 579.026 210 622 210H714C756.974 210 790 243.026 790 286V290H546V286Z" fill="#E3F5FF"/>
  <rect x="520" y="290" width="300" height="28" rx="12" fill="#36B0F0"/>
  <circle cx="586" cy="242" r="32" fill="#36B0F0"/>
  <rect x="626" y="224" width="136" height="14" rx="7" fill="#E3F5FF"/>
  <rect x="626" y="252" width="96" height="12" rx="6" fill="#7AC7E8"/>
  <rect x="486" y="420" width="188" height="120" rx="16" fill="#1F4C67"/>
  <rect x="710" y="420" width="180" height="120" rx="16" fill="#1F4C67"/>
  <rect x="916" y="420" width="120" height="120" rx="16" fill="#36B0F0"/>
  <path d="M520 474H618" stroke="#E3F5FF" stroke-width="12" stroke-linecap="round"/>
  <path d="M744 474H850" stroke="#E3F5FF" stroke-width="12" stroke-linecap="round"/>
  <path d="M950 474H1000" stroke="#E3F5FF" stroke-width="12" stroke-linecap="round"/>
  <path d="M166 572C166 544.386 188.386 522 216 522H288C315.614 522 338 544.386 338 572V600H166V572Z" fill="#36B0F0"/>
  <path d="M194 374V470" stroke="#E3F5FF" stroke-width="14" stroke-linecap="round"/>
  <path d="M248 374V470" stroke="#E3F5FF" stroke-width="14" stroke-linecap="round"/>
  <circle cx="222" cy="336" r="36" fill="#E3F5FF"/>
</svg>
