<svg width="1200" height="800" viewBox="0 0 1200 800" fill="none" xmlns="http://www.w3.org/2000/svg">
  <rect width="1200" height="800" rx="36" fill="#0C1216"/>
  <rect x="74" y="84" width="1052" height="632" rx="32" fill="#121A24" stroke="#2A3D4F" stroke-width="2"/>
  <rect x="128" y="148" width="464" height="288" rx="24" fill="#142535"/>
  <rect x="640" y="148" width="432" height="288" rx="24" fill="#173344"/>
  <rect x="128" y="470" width="944" height="176" rx="24" fill="#111E2B"/>
  <circle cx="300" cy="276" r="104" fill="#0EA5E9" fill-opacity="0.22"/>
  <rect x="214" y="214" width="172" height="124" rx="20" fill="#E7F5FF"/>
  <path d="M244 292L278 260L312 292" stroke="#0C1E2F" stroke-width="14" stroke-linecap="round" stroke-linejoin="round"/>
  <path d="M264 296V340" stroke="#0C1E2F" stroke-width="14" stroke-linecap="round"/>
  <rect x="688" y="212" width="180" height="26" rx="13" fill="#E7F5FF"/>
  <rect x="688" y="254" width="124" height="16" rx="8" fill="#7AC8E7"/>
  <rect x="688" y="286" width="158" height="16" rx="8" fill="#7AC8E7"/>
  <rect x="916" y="188" width="92" height="92" rx="22" fill="#0EA5E9"/>
  <path d="M962 208V258" stroke="#E7F5FF" stroke-width="16" stroke-linecap="round"/>
  <path d="M936 232H988" stroke="#E7F5FF" stroke-width="16" stroke-linecap="round"/>
  <rect x="180" y="520" width="264" height="64" rx="16" fill="#203A4D"/>
  <rect x="474" y="520" width="216" height="64" rx="16" fill="#203A4D"/>
  <rect x="722" y="520" width="242" height="64" rx="16" fill="#0EA5E9"/>
  <path d="M226 552H406" stroke="#E7F5FF" stroke-width="14" stroke-linecap="round"/>
  <path d="M520 552H660" stroke="#E7F5FF" stroke-width="14" stroke-linecap="round"/>
  <path d="M768 552H928" stroke="#E7F5FF" stroke-width="14" stroke-linecap="round"/>
</svg>
